<?xml version="1.0"?>
<svg xmlns="http://www.w3.org/2000/svg" viewBox="0 0 50 50">
    <path style="line-height:normal;text-indent:0;text-align:start;text-decoration-line:none;text-decoration-style:solid;text-decoration-color:#000;text-transform:none;block-progression:tb;isolation:auto;mix-blend-mode:normal" d="M 28.957031 4 C 24.022446 4 20 8.0224458 20 12.957031 L 20 14 C 20 14.264591 19.894727 14.519336 19.707031 14.707031 C 19.519336 14.894727 19.264591 15 19 15 L 10.886719 15 C 8.5299002 15 6.2697706 15.937261 4.6035156 17.603516 C 2.9372606 19.269771 2 21.5299 2 23.886719 L 2 31.400391 C 2 31.710032 2.0186192 32.015079 2.0507812 32.316406 L 2.0507812 38.400391 C 2.0507812 43.110908 5.8890922 46.949219 10.599609 46.949219 L 39.400391 46.949219 C 44.110908 46.949219 47.949219 43.110908 47.949219 38.400391 L 47.949219 32.316406 C 47.981381 32.015079 48 31.710032 48 31.400391 L 48 13 A 1.0001 1.0001 0 0 0 48 12.982422 C 47.951893 10.314927 47.094504 8.0315875 45.509766 6.4375 C 43.925849 4.8442397 41.655502 3.9911248 39 4 L 28.957031 4 z M 34 13 C 34.553 13 35 13.447 35 14 L 35 22 C 35 25.859 31.859 29 28 29 L 17 29 L 17 33 L 12 28 L 17 23 L 17 27 L 28 27 C 30.757 27 33 24.757 33 22 L 33 14 C 33 13.447 33.447 13 34 13 z M 3.9492188 36.841797 C 5.5283426 38.767201 7.9242408 40 10.599609 40 L 39.400391 40 C 42.075759 40 44.471657 38.767201 46.050781 36.841797 L 46.050781 38.400391 C 46.050781 42.083873 43.083873 45.050781 39.400391 45.050781 L 10.599609 45.050781 C 6.9161274 45.050781 3.9492187 42.083873 3.9492188 38.400391 L 3.9492188 36.841797 z" font-weight="400" font-family="sans-serif" white-space="normal" overflow="visible"/>
</svg>
